<svg width="178" height="218" viewBox="0 0 178 218" fill="none" xmlns="http://www.w3.org/2000/svg">
<rect width="178" height="218" fill="#1E1E1E" style="fill:#1E1E1E;fill:color(display-p3 0.1176 0.1176 0.1176);fill-opacity:1;"/>
<rect width="268" height="410" transform="translate(-45 -96)" fill="#033493" style="fill:#033493;fill:color(display-p3 0.0128 0.2039 0.5750);fill-opacity:1;"/>
<rect x="3.60156" width="170.398" height="217.668" rx="10" fill="#033493" style="fill:#033493;fill:color(display-p3 0.0128 0.2039 0.5750);fill-opacity:1;"/>
<mask id="path-2-inside-1_0_1" fill="white">
<path d="M18.3563 2.25096L30.1052 19.7105L18.3563 39.0249L6.3575 19.7105L18.3563 2.25096Z"/>
</mask>
<path d="M18.3563 2.25096L90.5357 -46.32L19.1137 -152.458L-53.3441 -47.0243L18.3563 2.25096ZM30.1052 19.7105L104.434 64.924L133.376 17.3439L102.285 -28.8605L30.1052 19.7105ZM18.3563 39.0249L-55.5443 84.9346L19.1365 205.148L92.6849 84.2384L18.3563 39.0249ZM6.3575 19.7105L-65.3429 -29.5648L-97.556 17.3085L-67.5431 65.6202L6.3575 19.7105ZM-53.8231 50.8219L-42.0742 68.2814L102.285 -28.8605L90.5357 -46.32L-53.8231 50.8219ZM-44.2234 -25.5031L-55.9723 -6.18863L92.6849 84.2384L104.434 64.924L-44.2234 -25.5031ZM92.2569 -6.88481L80.2581 -26.1992L-67.5431 65.6202L-55.5443 84.9346L92.2569 -6.88481ZM78.0579 68.9857L90.0567 51.5262L-53.3441 -47.0243L-65.3429 -29.5648L78.0579 68.9857Z" fill="#1B7F9E" style="fill:#1B7F9E;fill:color(display-p3 0.1059 0.4980 0.6196);fill-opacity:1;" mask="url(#path-2-inside-1_0_1)"/>
<mask id="path-4-inside-2_0_1" fill="white">
<path d="M41.7664 2.25096L53.5152 19.7105L41.7664 39.0249L29.7675 19.7105L41.7664 2.25096Z"/>
</mask>
<path d="M41.7664 2.25096L181.977 -92.0994L43.2375 -298.275L-97.5138 -93.4676L41.7664 2.25096ZM53.5152 19.7105L197.901 107.539L254.122 15.1133L193.726 -74.64L53.5152 19.7105ZM41.7664 39.0249L-101.788 128.206L43.282 361.724L186.152 126.853L41.7664 39.0249ZM29.7675 19.7105L-109.513 -76.0081L-172.087 15.0446L-113.787 108.891L29.7675 19.7105ZM-98.4442 96.6014L-86.6954 114.061L193.726 -74.64L181.977 -92.0994L-98.4442 96.6014ZM-90.8702 -68.1181L-102.619 -48.8037L186.152 126.853L197.901 107.539L-90.8702 -68.1181ZM185.32 -50.156L173.322 -69.4705L-113.787 108.891L-101.788 128.206L185.32 -50.156ZM169.048 115.429L181.046 97.9695L-97.5138 -93.4676L-109.513 -76.0081L169.048 115.429Z" fill="#D6707E" style="fill:#D6707E;fill:color(display-p3 0.8392 0.4392 0.4941);fill-opacity:1;" mask="url(#path-4-inside-2_0_1)"/>
<mask id="path-6-inside-3_0_1" fill="white">
<path d="M65.4015 2.25096L77.1503 19.7105L65.4015 39.0249L53.4027 19.7105L65.4015 2.25096Z"/>
</mask>
<path d="M65.4015 2.25096L137.581 -46.32L66.1588 -152.458L-6.29893 -47.0243L65.4015 2.25096ZM77.1503 19.7105L151.479 64.924L180.422 17.3439L149.33 -28.8605L77.1503 19.7105ZM65.4015 39.0249L-8.49911 84.9346L66.1817 205.148L139.73 84.2384L65.4015 39.0249ZM53.4027 19.7105L-18.2978 -29.5648L-50.5109 17.3085L-20.4979 65.6202L53.4027 19.7105ZM-6.77791 50.8219L4.97092 68.2814L149.33 -28.8605L137.581 -46.32L-6.77791 50.8219ZM2.82175 -25.5031L-8.92709 -6.18863L139.73 84.2384L151.479 64.924L2.82175 -25.5031ZM139.302 -6.88481L127.303 -26.1992L-20.4979 65.6202L-8.49911 84.9346L139.302 -6.88481ZM125.103 68.9857L137.102 51.5262L-6.29893 -47.0243L-18.2978 -29.5648L125.103 68.9857Z" fill="#1B7F9E" style="fill:#1B7F9E;fill:color(display-p3 0.1059 0.4980 0.6196);fill-opacity:1;" mask="url(#path-6-inside-3_0_1)"/>
<mask id="path-8-inside-4_0_1" fill="white">
<path d="M88.8115 2.25096L100.56 19.7105L88.8115 39.0249L76.8127 19.7105L88.8115 2.25096Z"/>
</mask>
<path d="M88.8115 2.25096L229.022 -92.0994L90.2827 -298.275L-50.4686 -93.4676L88.8115 2.25096ZM100.56 19.7105L244.946 107.539L301.168 15.1133L240.771 -74.64L100.56 19.7105ZM88.8115 39.0249L-54.7425 128.206L90.3271 361.724L233.197 126.853L88.8115 39.0249ZM76.8127 19.7105L-62.4674 -76.0081L-125.042 15.0446L-66.7413 108.891L76.8127 19.7105ZM-51.399 96.6014L-39.6502 114.061L240.771 -74.64L229.022 -92.0994L-51.399 96.6014ZM-43.825 -68.1181L-55.5739 -48.8037L233.197 126.853L244.946 107.539L-43.825 -68.1181ZM232.366 -50.156L220.367 -69.4705L-66.7413 108.891L-54.7425 128.206L232.366 -50.156ZM216.093 115.429L228.092 97.9695L-50.4686 -93.4676L-62.4674 -76.0081L216.093 115.429Z" fill="#D6707E" style="fill:#D6707E;fill:color(display-p3 0.8392 0.4392 0.4941);fill-opacity:1;" mask="url(#path-8-inside-4_0_1)"/>
<mask id="path-10-inside-5_0_1" fill="white">
<path d="M112.447 2.25096L124.195 19.7105L112.447 39.0249L100.448 19.7105L112.447 2.25096Z"/>
</mask>
<path d="M112.447 2.25096L184.626 -46.32L113.204 -152.458L40.7461 -47.0243L112.447 2.25096ZM124.195 19.7105L198.524 64.924L227.467 17.3439L196.375 -28.8605L124.195 19.7105ZM112.447 39.0249L38.5459 84.9346L113.227 205.148L186.775 84.2384L112.447 39.0249ZM100.448 19.7105L28.7473 -29.5648L-3.46582 17.3085L26.5471 65.6202L100.448 19.7105ZM40.2671 50.8219L52.016 68.2814L196.375 -28.8605L184.626 -46.32L40.2671 50.8219ZM49.8668 -25.5031L38.118 -6.18863L186.775 84.2384L198.524 64.924L49.8668 -25.5031ZM186.347 -6.88481L174.348 -26.1992L26.5471 65.6202L38.5459 84.9346L186.347 -6.88481ZM172.148 68.9857L184.147 51.5262L40.7461 -47.0243L28.7473 -29.5648L172.148 68.9857Z" fill="#1B7F9E" style="fill:#1B7F9E;fill:color(display-p3 0.1059 0.4980 0.6196);fill-opacity:1;" mask="url(#path-10-inside-5_0_1)"/>
<mask id="path-12-inside-6_0_1" fill="white">
<path d="M135.857 2.25096L147.605 19.7105L135.857 39.0249L123.858 19.7105L135.857 2.25096Z"/>
</mask>
<path d="M135.857 2.25096L276.067 -92.0994L137.328 -298.275L-3.42357 -93.4676L135.857 2.25096ZM147.605 19.7105L291.991 107.539L348.213 15.1133L287.816 -74.64L147.605 19.7105ZM135.857 39.0249L-7.69748 128.206L137.372 361.724L280.242 126.853L135.857 39.0249ZM123.858 19.7105L-15.4224 -76.0081L-77.9973 15.0446L-19.6963 108.891L123.858 19.7105ZM-4.35399 96.6014L7.39484 114.061L287.816 -74.64L276.067 -92.0994L-4.35399 96.6014ZM3.22 -68.1181L-8.52883 -48.8037L280.242 126.853L291.991 107.539L3.22 -68.1181ZM279.411 -50.156L267.412 -69.4705L-19.6963 108.891L-7.69748 128.206L279.411 -50.156ZM263.138 115.429L275.137 97.9695L-3.42357 -93.4676L-15.4224 -76.0081L263.138 115.429Z" fill="#D6707E" style="fill:#D6707E;fill:color(display-p3 0.8392 0.4392 0.4941);fill-opacity:1;" mask="url(#path-12-inside-6_0_1)"/>
<mask id="path-14-inside-7_0_1" fill="white">
<path d="M159.492 2.25096L171.241 19.7105L159.492 39.0249L147.493 19.7105L159.492 2.25096Z"/>
</mask>
<path d="M159.492 2.25096L231.671 -46.32L160.249 -152.458L87.7913 -47.0243L159.492 2.25096ZM171.241 19.7105L245.569 64.924L274.512 17.3439L243.42 -28.8605L171.241 19.7105ZM159.492 39.0249L85.5911 84.9346L160.272 205.148L233.82 84.2384L159.492 39.0249ZM147.493 19.7105L75.7925 -29.5648L43.5793 17.3085L73.5923 65.6202L147.493 19.7105ZM87.3123 50.8219L99.0611 68.2814L243.42 -28.8605L231.671 -46.32L87.3123 50.8219ZM96.912 -25.5031L85.1631 -6.18863L233.82 84.2384L245.569 64.924L96.912 -25.5031ZM233.392 -6.88481L221.393 -26.1992L73.5923 65.6202L85.5911 84.9346L233.392 -6.88481ZM219.193 68.9857L231.192 51.5262L87.7913 -47.0243L75.7925 -29.5648L219.193 68.9857Z" fill="#1B7F9E" style="fill:#1B7F9E;fill:color(display-p3 0.1059 0.4980 0.6196);fill-opacity:1;" mask="url(#path-14-inside-7_0_1)"/>
<mask id="path-16-inside-8_0_1" fill="white">
<path d="M18.3563 180.977L30.1052 198.437L18.3563 217.751L6.3575 198.437L18.3563 180.977Z"/>
</mask>
<path d="M18.3563 180.977L90.5357 132.406L19.1137 26.2689L-53.3441 131.702L18.3563 180.977ZM30.1052 198.437L104.434 243.65L133.376 196.07L102.285 149.866L30.1052 198.437ZM18.3563 217.751L-55.5443 263.661L19.1365 383.874L92.6849 262.965L18.3563 217.751ZM6.3575 198.437L-65.3429 149.162L-97.556 196.035L-67.5431 244.347L6.3575 198.437ZM-53.8231 229.548L-42.0742 247.008L102.285 149.866L90.5357 132.406L-53.8231 229.548ZM-44.2234 153.223L-55.9723 172.538L92.6849 262.965L104.434 243.65L-44.2234 153.223ZM92.2569 171.842L80.2581 152.527L-67.5431 244.347L-55.5443 263.661L92.2569 171.842ZM78.0579 247.712L90.0567 230.253L-53.3441 131.702L-65.3429 149.162L78.0579 247.712Z" fill="#D6707E" style="fill:#D6707E;fill:color(display-p3 0.8392 0.4392 0.4941);fill-opacity:1;" mask="url(#path-16-inside-8_0_1)"/>
<mask id="path-18-inside-9_0_1" fill="white">
<path d="M41.7664 180.977L53.5152 198.437L41.7664 217.751L29.7675 198.437L41.7664 180.977Z"/>
</mask>
<path d="M41.7664 180.977L181.977 86.627L43.2375 -119.548L-97.5138 85.2588L41.7664 180.977ZM53.5152 198.437L197.901 286.265L254.122 193.84L193.726 104.086L53.5152 198.437ZM41.7664 217.751L-101.788 306.932L43.282 540.45L186.152 305.58L41.7664 217.751ZM29.7675 198.437L-109.513 102.718L-172.087 193.771L-113.787 287.618L29.7675 198.437ZM-98.4442 275.328L-86.6954 292.787L193.726 104.086L181.977 86.627L-98.4442 275.328ZM-90.8702 110.608L-102.619 129.923L186.152 305.58L197.901 286.265L-90.8702 110.608ZM185.32 128.57L173.322 109.256L-113.787 287.618L-101.788 306.932L185.32 128.57ZM169.048 294.155L181.046 276.696L-97.5138 85.2588L-109.513 102.718L169.048 294.155Z" fill="#1B7F9E" style="fill:#1B7F9E;fill:color(display-p3 0.1059 0.4980 0.6196);fill-opacity:1;" mask="url(#path-18-inside-9_0_1)"/>
<mask id="path-20-inside-10_0_1" fill="white">
<path d="M65.4015 180.977L77.1503 198.437L65.4015 217.751L53.4027 198.437L65.4015 180.977Z"/>
</mask>
<path d="M65.4015 180.977L137.581 132.406L66.1588 26.2689L-6.29893 131.702L65.4015 180.977ZM77.1503 198.437L151.479 243.65L180.422 196.07L149.33 149.866L77.1503 198.437ZM65.4015 217.751L-8.49911 263.661L66.1817 383.874L139.73 262.965L65.4015 217.751ZM53.4027 198.437L-18.2978 149.162L-50.5109 196.035L-20.4979 244.347L53.4027 198.437ZM-6.77791 229.548L4.97092 247.008L149.33 149.866L137.581 132.406L-6.77791 229.548ZM2.82175 153.223L-8.92709 172.538L139.73 262.965L151.479 243.65L2.82175 153.223ZM139.302 171.842L127.303 152.527L-20.4979 244.347L-8.49911 263.661L139.302 171.842ZM125.103 247.712L137.102 230.253L-6.29893 131.702L-18.2978 149.162L125.103 247.712Z" fill="#D6707E" style="fill:#D6707E;fill:color(display-p3 0.8392 0.4392 0.4941);fill-opacity:1;" mask="url(#path-20-inside-10_0_1)"/>
<mask id="path-22-inside-11_0_1" fill="white">
<path d="M88.8115 180.977L100.56 198.437L88.8115 217.751L76.8127 198.437L88.8115 180.977Z"/>
</mask>
<path d="M88.8115 180.977L229.022 86.627L90.2827 -119.548L-50.4686 85.2588L88.8115 180.977ZM100.56 198.437L244.946 286.265L301.168 193.84L240.771 104.086L100.56 198.437ZM88.8115 217.751L-54.7425 306.932L90.3271 540.45L233.197 305.58L88.8115 217.751ZM76.8127 198.437L-62.4674 102.718L-125.042 193.771L-66.7413 287.618L76.8127 198.437ZM-51.399 275.328L-39.6502 292.787L240.771 104.086L229.022 86.627L-51.399 275.328ZM-43.825 110.608L-55.5739 129.923L233.197 305.58L244.946 286.265L-43.825 110.608ZM232.366 128.57L220.367 109.256L-66.7413 287.618L-54.7425 306.932L232.366 128.57ZM216.093 294.155L228.092 276.696L-50.4686 85.2588L-62.4674 102.718L216.093 294.155Z" fill="#1B7F9E" style="fill:#1B7F9E;fill:color(display-p3 0.1059 0.4980 0.6196);fill-opacity:1;" mask="url(#path-22-inside-11_0_1)"/>
<mask id="path-24-inside-12_0_1" fill="white">
<path d="M112.447 180.977L124.195 198.437L112.447 217.751L100.448 198.437L112.447 180.977Z"/>
</mask>
<path d="M112.447 180.977L184.626 132.406L113.204 26.2689L40.7461 131.702L112.447 180.977ZM124.195 198.437L198.524 243.65L227.467 196.07L196.375 149.866L124.195 198.437ZM112.447 217.751L38.5459 263.661L113.227 383.874L186.775 262.965L112.447 217.751ZM100.448 198.437L28.7473 149.162L-3.46582 196.035L26.5471 244.347L100.448 198.437ZM40.2671 229.548L52.016 247.008L196.375 149.866L184.626 132.406L40.2671 229.548ZM49.8668 153.223L38.118 172.538L186.775 262.965L198.524 243.65L49.8668 153.223ZM186.347 171.842L174.348 152.527L26.5471 244.347L38.5459 263.661L186.347 171.842ZM172.148 247.712L184.147 230.253L40.7461 131.702L28.7473 149.162L172.148 247.712Z" fill="#D6707E" style="fill:#D6707E;fill:color(display-p3 0.8392 0.4392 0.4941);fill-opacity:1;" mask="url(#path-24-inside-12_0_1)"/>
<mask id="path-26-inside-13_0_1" fill="white">
<path d="M135.857 180.977L147.605 198.437L135.857 217.751L123.858 198.437L135.857 180.977Z"/>
</mask>
<path d="M135.857 180.977L276.067 86.627L137.328 -119.548L-3.42357 85.2588L135.857 180.977ZM147.605 198.437L291.991 286.265L348.213 193.84L287.816 104.086L147.605 198.437ZM135.857 217.751L-7.69748 306.932L137.372 540.45L280.242 305.58L135.857 217.751ZM123.858 198.437L-15.4224 102.718L-77.9973 193.771L-19.6963 287.618L123.858 198.437ZM-4.35399 275.328L7.39484 292.787L287.816 104.086L276.067 86.627L-4.35399 275.328ZM3.22 110.608L-8.52883 129.923L280.242 305.58L291.991 286.265L3.22 110.608ZM279.411 128.57L267.412 109.256L-19.6963 287.618L-7.69748 306.932L279.411 128.57ZM263.138 294.155L275.137 276.696L-3.42357 85.2588L-15.4224 102.718L263.138 294.155Z" fill="#1B7F9E" style="fill:#1B7F9E;fill:color(display-p3 0.1059 0.4980 0.6196);fill-opacity:1;" mask="url(#path-26-inside-13_0_1)"/>
<mask id="path-28-inside-14_0_1" fill="white">
<path d="M159.492 180.977L171.241 198.437L159.492 217.751L147.493 198.437L159.492 180.977Z"/>
</mask>
<path d="M159.492 180.977L231.671 132.406L160.249 26.2689L87.7913 131.702L159.492 180.977ZM171.241 198.437L245.569 243.65L274.512 196.07L243.42 149.866L171.241 198.437ZM159.492 217.751L85.5911 263.661L160.272 383.874L233.82 262.965L159.492 217.751ZM147.493 198.437L75.7925 149.162L43.5793 196.035L73.5923 244.347L147.493 198.437ZM87.3123 229.548L99.0611 247.008L243.42 149.866L231.671 132.406L87.3123 229.548ZM96.912 153.223L85.1631 172.538L233.82 262.965L245.569 243.65L96.912 153.223ZM233.392 171.842L221.393 152.527L73.5923 244.347L85.5911 263.661L233.392 171.842ZM219.193 247.712L231.192 230.253L87.7913 131.702L75.7925 149.162L219.193 247.712Z" fill="#D6707E" style="fill:#D6707E;fill:color(display-p3 0.8392 0.4392 0.4941);fill-opacity:1;" mask="url(#path-28-inside-14_0_1)"/>
<mask id="path-30-inside-15_0_1" fill="white">
<path d="M18.3563 145.412L30.1052 162.872L18.3563 182.186L6.3575 162.872L18.3563 145.412Z"/>
</mask>
<path d="M18.3563 145.412L90.5357 96.8412L19.1137 -9.29638L-53.3441 96.1369L18.3563 145.412ZM30.1052 162.872L104.434 208.085L133.376 160.505L102.285 114.301L30.1052 162.872ZM18.3563 182.186L-55.5443 228.096L19.1365 348.309L92.6849 227.4L18.3563 182.186ZM6.3575 162.872L-65.3429 113.596L-97.556 160.47L-67.5431 208.781L6.3575 162.872ZM-53.8231 193.983L-42.0742 211.443L102.285 114.301L90.5357 96.8412L-53.8231 193.983ZM-44.2234 117.658L-55.9723 136.973L92.6849 227.4L104.434 208.085L-44.2234 117.658ZM92.2569 136.276L80.2581 116.962L-67.5431 208.781L-55.5443 228.096L92.2569 136.276ZM78.0579 212.147L90.0567 194.687L-53.3441 96.1369L-65.3429 113.596L78.0579 212.147Z" fill="#1B7F9E" style="fill:#1B7F9E;fill:color(display-p3 0.1059 0.4980 0.6196);fill-opacity:1;" mask="url(#path-30-inside-15_0_1)"/>
<mask id="path-32-inside-16_0_1" fill="white">
<path d="M41.7664 145.412L53.5152 162.872L41.7664 182.186L29.7675 162.872L41.7664 145.412Z"/>
</mask>
<path d="M41.7664 145.412L181.977 51.0618L43.2375 -155.114L-97.5138 49.6936L41.7664 145.412ZM53.5152 162.872L197.901 250.7L254.122 158.275L193.726 68.5213L53.5152 162.872ZM41.7664 182.186L-101.788 271.367L43.282 504.885L186.152 270.015L41.7664 182.186ZM29.7675 162.872L-109.513 67.1531L-172.087 158.206L-113.787 252.053L29.7675 162.872ZM-98.4442 239.763L-86.6954 257.222L193.726 68.5213L181.977 51.0618L-98.4442 239.763ZM-90.8702 75.0431L-102.619 94.3575L186.152 270.015L197.901 250.7L-90.8702 75.0431ZM185.32 93.0052L173.322 73.6907L-113.787 252.053L-101.788 271.367L185.32 93.0052ZM169.048 258.59L181.046 241.131L-97.5138 49.6936L-109.513 67.1531L169.048 258.59Z" fill="#D6707E" style="fill:#D6707E;fill:color(display-p3 0.8392 0.4392 0.4941);fill-opacity:1;" mask="url(#path-32-inside-16_0_1)"/>
<mask id="path-34-inside-17_0_1" fill="white">
<path d="M65.4015 145.412L77.1503 162.872L65.4015 182.186L53.4027 162.872L65.4015 145.412Z"/>
</mask>
<path d="M65.4015 145.412L137.581 96.8412L66.1588 -9.29638L-6.29893 96.1369L65.4015 145.412ZM77.1503 162.872L151.479 208.085L180.422 160.505L149.33 114.301L77.1503 162.872ZM65.4015 182.186L-8.49911 228.096L66.1817 348.309L139.73 227.4L65.4015 182.186ZM53.4027 162.872L-18.2978 113.596L-50.5109 160.47L-20.4979 208.781L53.4027 162.872ZM-6.77791 193.983L4.97092 211.443L149.33 114.301L137.581 96.8412L-6.77791 193.983ZM2.82175 117.658L-8.92709 136.973L139.73 227.4L151.479 208.085L2.82175 117.658ZM139.302 136.276L127.303 116.962L-20.4979 208.781L-8.49911 228.096L139.302 136.276ZM125.103 212.147L137.102 194.687L-6.29893 96.1369L-18.2978 113.596L125.103 212.147Z" fill="#1B7F9E" style="fill:#1B7F9E;fill:color(display-p3 0.1059 0.4980 0.6196);fill-opacity:1;" mask="url(#path-34-inside-17_0_1)"/>
<mask id="path-36-inside-18_0_1" fill="white">
<path d="M88.8115 145.412L100.56 162.872L88.8115 182.186L76.8127 162.872L88.8115 145.412Z"/>
</mask>
<path d="M88.8115 145.412L229.022 51.0618L90.2827 -155.114L-50.4686 49.6936L88.8115 145.412ZM100.56 162.872L244.946 250.7L301.168 158.275L240.771 68.5213L100.56 162.872ZM88.8115 182.186L-54.7425 271.367L90.3271 504.885L233.197 270.015L88.8115 182.186ZM76.8127 162.872L-62.4674 67.1531L-125.042 158.206L-66.7413 252.053L76.8127 162.872ZM-51.399 239.763L-39.6502 257.222L240.771 68.5213L229.022 51.0618L-51.399 239.763ZM-43.825 75.0431L-55.5739 94.3575L233.197 270.015L244.946 250.7L-43.825 75.0431ZM232.366 93.0052L220.367 73.6907L-66.7413 252.053L-54.7425 271.367L232.366 93.0052ZM216.093 258.59L228.092 241.131L-50.4686 49.6936L-62.4674 67.1531L216.093 258.59Z" fill="#D6707E" style="fill:#D6707E;fill:color(display-p3 0.8392 0.4392 0.4941);fill-opacity:1;" mask="url(#path-36-inside-18_0_1)"/>
<mask id="path-38-inside-19_0_1" fill="white">
<path d="M112.447 145.412L124.195 162.872L112.447 182.186L100.448 162.872L112.447 145.412Z"/>
</mask>
<path d="M112.447 145.412L184.626 96.8412L113.204 -9.29638L40.7461 96.1369L112.447 145.412ZM124.195 162.872L198.524 208.085L227.467 160.505L196.375 114.301L124.195 162.872ZM112.447 182.186L38.5459 228.096L113.227 348.309L186.775 227.4L112.447 182.186ZM100.448 162.872L28.7473 113.596L-3.46582 160.47L26.5471 208.781L100.448 162.872ZM40.2671 193.983L52.016 211.443L196.375 114.301L184.626 96.8412L40.2671 193.983ZM49.8668 117.658L38.118 136.973L186.775 227.4L198.524 208.085L49.8668 117.658ZM186.347 136.276L174.348 116.962L26.5471 208.781L38.5459 228.096L186.347 136.276ZM172.148 212.147L184.147 194.687L40.7461 96.1369L28.7473 113.596L172.148 212.147Z" fill="#1B7F9E" style="fill:#1B7F9E;fill:color(display-p3 0.1059 0.4980 0.6196);fill-opacity:1;" mask="url(#path-38-inside-19_0_1)"/>
<mask id="path-40-inside-20_0_1" fill="white">
<path d="M135.857 145.412L147.605 162.872L135.857 182.186L123.858 162.872L135.857 145.412Z"/>
</mask>
<path d="M135.857 145.412L276.067 51.0618L137.328 -155.114L-3.42357 49.6936L135.857 145.412ZM147.605 162.872L291.991 250.7L348.213 158.275L287.816 68.5213L147.605 162.872ZM135.857 182.186L-7.69748 271.367L137.372 504.885L280.242 270.015L135.857 182.186ZM123.858 162.872L-15.4224 67.1531L-77.9973 158.206L-19.6963 252.053L123.858 162.872ZM-4.35399 239.763L7.39484 257.222L287.816 68.5213L276.067 51.0618L-4.35399 239.763ZM3.22 75.0431L-8.52883 94.3575L280.242 270.015L291.991 250.7L3.22 75.0431ZM279.411 93.0052L267.412 73.6907L-19.6963 252.053L-7.69748 271.367L279.411 93.0052ZM263.138 258.59L275.137 241.131L-3.42357 49.6936L-15.4224 67.1531L263.138 258.59Z" fill="#D6707E" style="fill:#D6707E;fill:color(display-p3 0.8392 0.4392 0.4941);fill-opacity:1;" mask="url(#path-40-inside-20_0_1)"/>
<mask id="path-42-inside-21_0_1" fill="white">
<path d="M159.492 145.412L171.241 162.872L159.492 182.186L147.493 162.872L159.492 145.412Z"/>
</mask>
<path d="M159.492 145.412L231.671 96.8412L160.249 -9.29638L87.7913 96.1369L159.492 145.412ZM171.241 162.872L245.569 208.085L274.512 160.505L243.42 114.301L171.241 162.872ZM159.492 182.186L85.5911 228.096L160.272 348.309L233.82 227.4L159.492 182.186ZM147.493 162.872L75.7925 113.596L43.5793 160.47L73.5923 208.781L147.493 162.872ZM87.3123 193.983L99.0611 211.443L243.42 114.301L231.671 96.8412L87.3123 193.983ZM96.912 117.658L85.1631 136.973L233.82 227.4L245.569 208.085L96.912 117.658ZM233.392 136.276L221.393 116.962L73.5923 208.781L85.5911 228.096L233.392 136.276ZM219.193 212.147L231.192 194.687L87.7913 96.1369L75.7925 113.596L219.193 212.147Z" fill="#1B7F9E" style="fill:#1B7F9E;fill:color(display-p3 0.1059 0.4980 0.6196);fill-opacity:1;" mask="url(#path-42-inside-21_0_1)"/>
<mask id="path-44-inside-22_0_1" fill="white">
<path d="M18.3563 111.198L30.1052 128.657L18.3563 147.972L6.3575 128.657L18.3563 111.198Z"/>
</mask>
<path d="M18.3563 111.198L90.5357 62.6266L19.1137 -43.511L-53.3441 61.9223L18.3563 111.198ZM30.1052 128.657L104.434 173.871L133.376 126.29L102.285 80.0861L30.1052 128.657ZM18.3563 147.972L-55.5443 193.881L19.1365 314.095L92.6849 193.185L18.3563 147.972ZM6.3575 128.657L-65.3429 79.3818L-97.556 126.255L-67.5431 174.567L6.3575 128.657ZM-53.8231 159.768L-42.0742 177.228L102.285 80.0861L90.5357 62.6266L-53.8231 159.768ZM-44.2234 83.4435L-55.9723 102.758L92.6849 193.185L104.434 173.871L-44.2234 83.4435ZM92.2569 102.062L80.2581 82.7474L-67.5431 174.567L-55.5443 193.881L92.2569 102.062ZM78.0579 177.932L90.0567 160.473L-53.3441 61.9223L-65.3429 79.3818L78.0579 177.932Z" fill="#D6707E" style="fill:#D6707E;fill:color(display-p3 0.8392 0.4392 0.4941);fill-opacity:1;" mask="url(#path-44-inside-22_0_1)"/>
<mask id="path-46-inside-23_0_1" fill="white">
<path d="M41.7664 111.198L53.5152 128.657L41.7664 147.972L29.7675 128.657L41.7664 111.198Z"/>
</mask>
<path d="M41.7664 111.198L181.977 16.8472L43.2375 -189.328L-97.5138 15.479L41.7664 111.198ZM53.5152 128.657L197.901 216.486L254.122 124.06L193.726 34.3066L53.5152 128.657ZM41.7664 147.972L-101.788 237.152L43.282 470.67L186.152 235.8L41.7664 147.972ZM29.7675 128.657L-109.513 32.9385L-172.087 123.991L-113.787 217.838L29.7675 128.657ZM-98.4442 205.548L-86.6954 223.007L193.726 34.3066L181.977 16.8472L-98.4442 205.548ZM-90.8702 40.8285L-102.619 60.1429L186.152 235.8L197.901 216.486L-90.8702 40.8285ZM185.32 58.7906L173.322 39.4761L-113.787 217.838L-101.788 237.152L185.32 58.7906ZM169.048 224.376L181.046 206.916L-97.5138 15.479L-109.513 32.9385L169.048 224.376Z" fill="#1B7F9E" style="fill:#1B7F9E;fill:color(display-p3 0.1059 0.4980 0.6196);fill-opacity:1;" mask="url(#path-46-inside-23_0_1)"/>
<mask id="path-48-inside-24_0_1" fill="white">
<path d="M65.4015 111.198L77.1503 128.657L65.4015 147.972L53.4027 128.657L65.4015 111.198Z"/>
</mask>
<path d="M65.4015 111.198L137.581 62.6266L66.1588 -43.511L-6.29893 61.9223L65.4015 111.198ZM77.1503 128.657L151.479 173.871L180.422 126.29L149.33 80.0861L77.1503 128.657ZM65.4015 147.972L-8.49911 193.881L66.1817 314.095L139.73 193.185L65.4015 147.972ZM53.4027 128.657L-18.2978 79.3818L-50.5109 126.255L-20.4979 174.567L53.4027 128.657ZM-6.77791 159.768L4.97092 177.228L149.33 80.0861L137.581 62.6266L-6.77791 159.768ZM2.82175 83.4435L-8.92709 102.758L139.73 193.185L151.479 173.871L2.82175 83.4435ZM139.302 102.062L127.303 82.7474L-20.4979 174.567L-8.49911 193.881L139.302 102.062ZM125.103 177.932L137.102 160.473L-6.29893 61.9223L-18.2978 79.3818L125.103 177.932Z" fill="#D6707E" style="fill:#D6707E;fill:color(display-p3 0.8392 0.4392 0.4941);fill-opacity:1;" mask="url(#path-48-inside-24_0_1)"/>
<mask id="path-50-inside-25_0_1" fill="white">
<path d="M88.8115 111.198L100.56 128.657L88.8115 147.972L76.8127 128.657L88.8115 111.198Z"/>
</mask>
<path d="M88.8115 111.198L229.022 16.8472L90.2827 -189.328L-50.4686 15.479L88.8115 111.198ZM100.56 128.657L244.946 216.486L301.168 124.06L240.771 34.3066L100.56 128.657ZM88.8115 147.972L-54.7425 237.152L90.3271 470.67L233.197 235.8L88.8115 147.972ZM76.8127 128.657L-62.4674 32.9385L-125.042 123.991L-66.7413 217.838L76.8127 128.657ZM-51.399 205.548L-39.6502 223.007L240.771 34.3066L229.022 16.8472L-51.399 205.548ZM-43.825 40.8285L-55.5739 60.1429L233.197 235.8L244.946 216.486L-43.825 40.8285ZM232.366 58.7906L220.367 39.4761L-66.7413 217.838L-54.7425 237.152L232.366 58.7906ZM216.093 224.376L228.092 206.916L-50.4686 15.479L-62.4674 32.9385L216.093 224.376Z" fill="#1B7F9E" style="fill:#1B7F9E;fill:color(display-p3 0.1059 0.4980 0.6196);fill-opacity:1;" mask="url(#path-50-inside-25_0_1)"/>
<mask id="path-52-inside-26_0_1" fill="white">
<path d="M112.447 111.198L124.195 128.657L112.447 147.972L100.448 128.657L112.447 111.198Z"/>
</mask>
<path d="M112.447 111.198L184.626 62.6266L113.204 -43.511L40.7461 61.9223L112.447 111.198ZM124.195 128.657L198.524 173.871L227.467 126.29L196.375 80.0861L124.195 128.657ZM112.447 147.972L38.5459 193.881L113.227 314.095L186.775 193.185L112.447 147.972ZM100.448 128.657L28.7473 79.3818L-3.46582 126.255L26.5471 174.567L100.448 128.657ZM40.2671 159.768L52.016 177.228L196.375 80.0861L184.626 62.6266L40.2671 159.768ZM49.8668 83.4435L38.118 102.758L186.775 193.185L198.524 173.871L49.8668 83.4435ZM186.347 102.062L174.348 82.7474L26.5471 174.567L38.5459 193.881L186.347 102.062ZM172.148 177.932L184.147 160.473L40.7461 61.9223L28.7473 79.3818L172.148 177.932Z" fill="#D6707E" style="fill:#D6707E;fill:color(display-p3 0.8392 0.4392 0.4941);fill-opacity:1;" mask="url(#path-52-inside-26_0_1)"/>
<mask id="path-54-inside-27_0_1" fill="white">
<path d="M135.857 111.198L147.605 128.657L135.857 147.972L123.858 128.657L135.857 111.198Z"/>
</mask>
<path d="M135.857 111.198L276.067 16.8472L137.328 -189.328L-3.42357 15.479L135.857 111.198ZM147.605 128.657L291.991 216.486L348.213 124.06L287.816 34.3066L147.605 128.657ZM135.857 147.972L-7.69748 237.152L137.372 470.67L280.242 235.8L135.857 147.972ZM123.858 128.657L-15.4224 32.9385L-77.9973 123.991L-19.6963 217.838L123.858 128.657ZM-4.35399 205.548L7.39484 223.007L287.816 34.3066L276.067 16.8472L-4.35399 205.548ZM3.22 40.8285L-8.52883 60.1429L280.242 235.8L291.991 216.486L3.22 40.8285ZM279.411 58.7906L267.412 39.4761L-19.6963 217.838L-7.69748 237.152L279.411 58.7906ZM263.138 224.376L275.137 206.916L-3.42357 15.479L-15.4224 32.9385L263.138 224.376Z" fill="#1B7F9E" style="fill:#1B7F9E;fill:color(display-p3 0.1059 0.4980 0.6196);fill-opacity:1;" mask="url(#path-54-inside-27_0_1)"/>
<mask id="path-56-inside-28_0_1" fill="white">
<path d="M159.492 111.198L171.241 128.657L159.492 147.972L147.493 128.657L159.492 111.198Z"/>
</mask>
<path d="M159.492 111.198L231.671 62.6266L160.249 -43.511L87.7913 61.9223L159.492 111.198ZM171.241 128.657L245.569 173.871L274.512 126.29L243.42 80.0861L171.241 128.657ZM159.492 147.972L85.5911 193.881L160.272 314.095L233.82 193.185L159.492 147.972ZM147.493 128.657L75.7925 79.3818L43.5793 126.255L73.5923 174.567L147.493 128.657ZM87.3123 159.768L99.0611 177.228L243.42 80.0861L231.671 62.6266L87.3123 159.768ZM96.912 83.4435L85.1631 102.758L233.82 193.185L245.569 173.871L96.912 83.4435ZM233.392 102.062L221.393 82.7474L73.5923 174.567L85.5911 193.881L233.392 102.062ZM219.193 177.932L231.192 160.473L87.7913 61.9223L75.7925 79.3818L219.193 177.932Z" fill="#D6707E" style="fill:#D6707E;fill:color(display-p3 0.8392 0.4392 0.4941);fill-opacity:1;" mask="url(#path-56-inside-28_0_1)"/>
<mask id="path-58-inside-29_0_1" fill="white">
<path d="M18.3563 74.5069L30.1052 91.9664L18.3563 111.281L6.3575 91.9664L18.3563 74.5069Z"/>
</mask>
<path d="M18.3563 74.5069L90.5357 25.936L19.1137 -80.2017L-53.3441 25.2316L18.3563 74.5069ZM30.1052 91.9664L104.434 137.18L133.376 89.5998L102.285 43.3954L30.1052 91.9664ZM18.3563 111.281L-55.5443 157.191L19.1365 277.404L92.6849 156.494L18.3563 111.281ZM6.3575 91.9664L-65.3429 42.6911L-97.556 89.5644L-67.5431 137.876L6.3575 91.9664ZM-53.8231 123.078L-42.0742 140.537L102.285 43.3954L90.5357 25.936L-53.8231 123.078ZM-44.2234 46.7528L-55.9723 66.0673L92.6849 156.494L104.434 137.18L-44.2234 46.7528ZM92.2569 65.3711L80.2581 46.0567L-67.5431 137.876L-55.5443 157.191L92.2569 65.3711ZM78.0579 141.242L90.0567 123.782L-53.3441 25.2316L-65.3429 42.6911L78.0579 141.242Z" fill="#1B7F9E" style="fill:#1B7F9E;fill:color(display-p3 0.1059 0.4980 0.6196);fill-opacity:1;" mask="url(#path-58-inside-29_0_1)"/>
<mask id="path-60-inside-30_0_1" fill="white">
<path d="M41.7664 74.5069L53.5152 91.9664L41.7664 111.281L29.7675 91.9664L41.7664 74.5069Z"/>
</mask>
<path d="M41.7664 74.5069L181.977 -19.8435L43.2375 -226.019L-97.5138 -21.2117L41.7664 74.5069ZM53.5152 91.9664L197.901 179.795L254.122 87.3692L193.726 -2.38404L53.5152 91.9664ZM41.7664 111.281L-101.788 200.462L43.282 433.98L186.152 199.109L41.7664 111.281ZM29.7675 91.9664L-109.513 -3.7522L-172.087 87.3005L-113.787 181.147L29.7675 91.9664ZM-98.4442 168.857L-86.6954 186.317L193.726 -2.38404L181.977 -19.8435L-98.4442 168.857ZM-90.8702 4.1378L-102.619 23.4522L186.152 199.109L197.901 179.795L-90.8702 4.1378ZM185.32 22.0999L173.322 2.78545L-113.787 181.147L-101.788 200.462L185.32 22.0999ZM169.048 187.685L181.046 170.225L-97.5138 -21.2117L-109.513 -3.7522L169.048 187.685Z" fill="#D6707E" style="fill:#D6707E;fill:color(display-p3 0.8392 0.4392 0.4941);fill-opacity:1;" mask="url(#path-60-inside-30_0_1)"/>
<mask id="path-62-inside-31_0_1" fill="white">
<path d="M65.4015 74.5069L77.1503 91.9664L65.4015 111.281L53.4027 91.9664L65.4015 74.5069Z"/>
</mask>
<path d="M65.4015 74.5069L137.581 25.936L66.1588 -80.2017L-6.29893 25.2316L65.4015 74.5069ZM77.1503 91.9664L151.479 137.18L180.422 89.5998L149.33 43.3954L77.1503 91.9664ZM65.4015 111.281L-8.49911 157.191L66.1817 277.404L139.73 156.494L65.4015 111.281ZM53.4027 91.9664L-18.2978 42.6911L-50.5109 89.5644L-20.4979 137.876L53.4027 91.9664ZM-6.77791 123.078L4.97092 140.537L149.33 43.3954L137.581 25.936L-6.77791 123.078ZM2.82175 46.7528L-8.92709 66.0673L139.73 156.494L151.479 137.18L2.82175 46.7528ZM139.302 65.3711L127.303 46.0567L-20.4979 137.876L-8.49911 157.191L139.302 65.3711ZM125.103 141.242L137.102 123.782L-6.29893 25.2316L-18.2978 42.6911L125.103 141.242Z" fill="#1B7F9E" style="fill:#1B7F9E;fill:color(display-p3 0.1059 0.4980 0.6196);fill-opacity:1;" mask="url(#path-62-inside-31_0_1)"/>
<mask id="path-64-inside-32_0_1" fill="white">
<path d="M88.8115 74.5069L100.56 91.9664L88.8115 111.281L76.8127 91.9664L88.8115 74.5069Z"/>
</mask>
<path d="M88.8115 74.5069L229.022 -19.8435L90.2827 -226.019L-50.4686 -21.2117L88.8115 74.5069ZM100.56 91.9664L244.946 179.795L301.168 87.3692L240.771 -2.38404L100.56 91.9664ZM88.8115 111.281L-54.7425 200.462L90.3271 433.98L233.197 199.109L88.8115 111.281ZM76.8127 91.9664L-62.4674 -3.7522L-125.042 87.3005L-66.7413 181.147L76.8127 91.9664ZM-51.399 168.857L-39.6502 186.317L240.771 -2.38404L229.022 -19.8435L-51.399 168.857ZM-43.825 4.1378L-55.5739 23.4522L233.197 199.109L244.946 179.795L-43.825 4.1378ZM232.366 22.0999L220.367 2.78545L-66.7413 181.147L-54.7425 200.462L232.366 22.0999ZM216.093 187.685L228.092 170.225L-50.4686 -21.2117L-62.4674 -3.7522L216.093 187.685Z" fill="#D6707E" style="fill:#D6707E;fill:color(display-p3 0.8392 0.4392 0.4941);fill-opacity:1;" mask="url(#path-64-inside-32_0_1)"/>
<mask id="path-66-inside-33_0_1" fill="white">
<path d="M112.447 74.5069L124.195 91.9664L112.447 111.281L100.448 91.9664L112.447 74.5069Z"/>
</mask>
<path d="M112.447 74.5069L184.626 25.936L113.204 -80.2017L40.7461 25.2316L112.447 74.5069ZM124.195 91.9664L198.524 137.18L227.467 89.5998L196.375 43.3954L124.195 91.9664ZM112.447 111.281L38.5459 157.191L113.227 277.404L186.775 156.494L112.447 111.281ZM100.448 91.9664L28.7473 42.6911L-3.46582 89.5644L26.5471 137.876L100.448 91.9664ZM40.2671 123.078L52.016 140.537L196.375 43.3954L184.626 25.936L40.2671 123.078ZM49.8668 46.7528L38.118 66.0673L186.775 156.494L198.524 137.18L49.8668 46.7528ZM186.347 65.3711L174.348 46.0567L26.5471 137.876L38.5459 157.191L186.347 65.3711ZM172.148 141.242L184.147 123.782L40.7461 25.2316L28.7473 42.6911L172.148 141.242Z" fill="#1B7F9E" style="fill:#1B7F9E;fill:color(display-p3 0.1059 0.4980 0.6196);fill-opacity:1;" mask="url(#path-66-inside-33_0_1)"/>
<mask id="path-68-inside-34_0_1" fill="white">
<path d="M135.857 74.5069L147.605 91.9664L135.857 111.281L123.858 91.9664L135.857 74.5069Z"/>
</mask>
<path d="M135.857 74.5069L276.067 -19.8435L137.328 -226.019L-3.42357 -21.2117L135.857 74.5069ZM147.605 91.9664L291.991 179.795L348.213 87.3692L287.816 -2.38404L147.605 91.9664ZM135.857 111.281L-7.69748 200.462L137.372 433.98L280.242 199.109L135.857 111.281ZM123.858 91.9664L-15.4224 -3.7522L-77.9973 87.3005L-19.6963 181.147L123.858 91.9664ZM-4.35399 168.857L7.39484 186.317L287.816 -2.38404L276.067 -19.8435L-4.35399 168.857ZM3.22 4.1378L-8.52883 23.4522L280.242 199.109L291.991 179.795L3.22 4.1378ZM279.411 22.0999L267.412 2.78545L-19.6963 181.147L-7.69748 200.462L279.411 22.0999ZM263.138 187.685L275.137 170.225L-3.42357 -21.2117L-15.4224 -3.7522L263.138 187.685Z" fill="#D6707E" style="fill:#D6707E;fill:color(display-p3 0.8392 0.4392 0.4941);fill-opacity:1;" mask="url(#path-68-inside-34_0_1)"/>
<mask id="path-70-inside-35_0_1" fill="white">
<path d="M159.492 74.5069L171.241 91.9664L159.492 111.281L147.493 91.9664L159.492 74.5069Z"/>
</mask>
<path d="M159.492 74.5069L231.671 25.936L160.249 -80.2017L87.7913 25.2316L159.492 74.5069ZM171.241 91.9664L245.569 137.18L274.512 89.5998L243.42 43.3954L171.241 91.9664ZM159.492 111.281L85.5911 157.191L160.272 277.404L233.82 156.494L159.492 111.281ZM147.493 91.9664L75.7925 42.6911L43.5793 89.5644L73.5923 137.876L147.493 91.9664ZM87.3123 123.078L99.0611 140.537L243.42 43.3954L231.671 25.936L87.3123 123.078ZM96.912 46.7528L85.1631 66.0673L233.82 156.494L245.569 137.18L96.912 46.7528ZM233.392 65.3711L221.393 46.0567L73.5923 137.876L85.5911 157.191L233.392 65.3711ZM219.193 141.242L231.192 123.782L87.7913 25.2316L75.7925 42.6911L219.193 141.242Z" fill="#1B7F9E" style="fill:#1B7F9E;fill:color(display-p3 0.1059 0.4980 0.6196);fill-opacity:1;" mask="url(#path-70-inside-35_0_1)"/>
<mask id="path-72-inside-36_0_1" fill="white">
<path d="M18.3563 37.8162L30.1052 55.2757L18.3563 74.5901L6.3575 55.2757L18.3563 37.8162Z"/>
</mask>
<path d="M18.3563 37.8162L90.5357 -10.7548L19.1137 -116.892L-53.3441 -11.4591L18.3563 37.8162ZM30.1052 55.2757L104.434 100.489L133.376 52.9091L102.285 6.70474L30.1052 55.2757ZM18.3563 74.5901L-55.5443 120.5L19.1365 240.713L92.6849 119.804L18.3563 74.5901ZM6.3575 55.2757L-65.3429 6.00042L-97.556 52.8737L-67.5431 101.185L6.3575 55.2757ZM-53.8231 86.3871L-42.0742 103.847L102.285 6.70474L90.5357 -10.7548L-53.8231 86.3871ZM-44.2234 10.0621L-55.9723 29.3766L92.6849 119.804L104.434 100.489L-44.2234 10.0621ZM92.2569 28.6804L80.2581 9.36595L-67.5431 101.185L-55.5443 120.5L92.2569 28.6804ZM78.0579 104.551L90.0567 87.0914L-53.3441 -11.4591L-65.3429 6.00042L78.0579 104.551Z" fill="#D6707E" style="fill:#D6707E;fill:color(display-p3 0.8392 0.4392 0.4941);fill-opacity:1;" mask="url(#path-72-inside-36_0_1)"/>
<mask id="path-74-inside-37_0_1" fill="white">
<path d="M41.7664 37.8162L53.5152 55.2757L41.7664 74.5901L29.7675 55.2757L41.7664 37.8162Z"/>
</mask>
<path d="M41.7664 37.8162L181.977 -56.5342L43.2375 -262.71L-97.5138 -57.9024L41.7664 37.8162ZM53.5152 55.2757L197.901 143.104L254.122 50.6785L193.726 -39.0748L53.5152 55.2757ZM41.7664 74.5901L-101.788 163.771L43.282 397.289L186.152 162.419L41.7664 74.5901ZM29.7675 55.2757L-109.513 -40.4429L-172.087 50.6098L-113.787 144.457L29.7675 55.2757ZM-98.4442 132.167L-86.6954 149.626L193.726 -39.0748L181.977 -56.5342L-98.4442 132.167ZM-90.8702 -32.5529L-102.619 -13.2385L186.152 162.419L197.901 143.104L-90.8702 -32.5529ZM185.32 -14.5908L173.322 -33.9053L-113.787 144.457L-101.788 163.771L185.32 -14.5908ZM169.048 150.994L181.046 133.535L-97.5138 -57.9024L-109.513 -40.4429L169.048 150.994Z" fill="#1B7F9E" style="fill:#1B7F9E;fill:color(display-p3 0.1059 0.4980 0.6196);fill-opacity:1;" mask="url(#path-74-inside-37_0_1)"/>
<mask id="path-76-inside-38_0_1" fill="white">
<path d="M65.4015 37.8162L77.1503 55.2757L65.4015 74.5901L53.4027 55.2757L65.4015 37.8162Z"/>
</mask>
<path d="M65.4015 37.8162L137.581 -10.7548L66.1588 -116.892L-6.29893 -11.4591L65.4015 37.8162ZM77.1503 55.2757L151.479 100.489L180.422 52.9091L149.33 6.70474L77.1503 55.2757ZM65.4015 74.5901L-8.49911 120.5L66.1817 240.713L139.73 119.804L65.4015 74.5901ZM53.4027 55.2757L-18.2978 6.00042L-50.5109 52.8737L-20.4979 101.185L53.4027 55.2757ZM-6.77791 86.3871L4.97092 103.847L149.33 6.70474L137.581 -10.7548L-6.77791 86.3871ZM2.82175 10.0621L-8.92709 29.3766L139.73 119.804L151.479 100.489L2.82175 10.0621ZM139.302 28.6804L127.303 9.36595L-20.4979 101.185L-8.49911 120.5L139.302 28.6804ZM125.103 104.551L137.102 87.0914L-6.29893 -11.4591L-18.2978 6.00042L125.103 104.551Z" fill="#D6707E" style="fill:#D6707E;fill:color(display-p3 0.8392 0.4392 0.4941);fill-opacity:1;" mask="url(#path-76-inside-38_0_1)"/>
<mask id="path-78-inside-39_0_1" fill="white">
<path d="M88.8115 37.8162L100.56 55.2757L88.8115 74.5901L76.8127 55.2757L88.8115 37.8162Z"/>
</mask>
<path d="M88.8115 37.8162L229.022 -56.5342L90.2827 -262.71L-50.4686 -57.9024L88.8115 37.8162ZM100.56 55.2757L244.946 143.104L301.168 50.6785L240.771 -39.0748L100.56 55.2757ZM88.8115 74.5901L-54.7425 163.771L90.3271 397.289L233.197 162.419L88.8115 74.5901ZM76.8127 55.2757L-62.4674 -40.4429L-125.042 50.6098L-66.7413 144.457L76.8127 55.2757ZM-51.399 132.167L-39.6502 149.626L240.771 -39.0748L229.022 -56.5342L-51.399 132.167ZM-43.825 -32.5529L-55.5739 -13.2385L233.197 162.419L244.946 143.104L-43.825 -32.5529ZM232.366 -14.5908L220.367 -33.9053L-66.7413 144.457L-54.7425 163.771L232.366 -14.5908ZM216.093 150.994L228.092 133.535L-50.4686 -57.9024L-62.4674 -40.4429L216.093 150.994Z" fill="#1B7F9E" style="fill:#1B7F9E;fill:color(display-p3 0.1059 0.4980 0.6196);fill-opacity:1;" mask="url(#path-78-inside-39_0_1)"/>
<mask id="path-80-inside-40_0_1" fill="white">
<path d="M112.447 37.8162L124.195 55.2757L112.447 74.5901L100.448 55.2757L112.447 37.8162Z"/>
</mask>
<path d="M112.447 37.8162L184.626 -10.7548L113.204 -116.892L40.7461 -11.4591L112.447 37.8162ZM124.195 55.2757L198.524 100.489L227.467 52.9091L196.375 6.70474L124.195 55.2757ZM112.447 74.5901L38.5459 120.5L113.227 240.713L186.775 119.804L112.447 74.5901ZM100.448 55.2757L28.7473 6.00042L-3.46582 52.8737L26.5471 101.185L100.448 55.2757ZM40.2671 86.3871L52.016 103.847L196.375 6.70474L184.626 -10.7548L40.2671 86.3871ZM49.8668 10.0621L38.118 29.3766L186.775 119.804L198.524 100.489L49.8668 10.0621ZM186.347 28.6804L174.348 9.36595L26.5471 101.185L38.5459 120.5L186.347 28.6804ZM172.148 104.551L184.147 87.0914L40.7461 -11.4591L28.7473 6.00042L172.148 104.551Z" fill="#D6707E" style="fill:#D6707E;fill:color(display-p3 0.8392 0.4392 0.4941);fill-opacity:1;" mask="url(#path-80-inside-40_0_1)"/>
<mask id="path-82-inside-41_0_1" fill="white">
<path d="M135.857 37.8162L147.605 55.2757L135.857 74.5901L123.858 55.2757L135.857 37.8162Z"/>
</mask>
<path d="M135.857 37.8162L276.067 -56.5342L137.328 -262.71L-3.42357 -57.9024L135.857 37.8162ZM147.605 55.2757L291.991 143.104L348.213 50.6785L287.816 -39.0748L147.605 55.2757ZM135.857 74.5901L-7.69748 163.771L137.372 397.289L280.242 162.419L135.857 74.5901ZM123.858 55.2757L-15.4224 -40.4429L-77.9973 50.6098L-19.6963 144.457L123.858 55.2757ZM-4.35399 132.167L7.39484 149.626L287.816 -39.0748L276.067 -56.5342L-4.35399 132.167ZM3.22 -32.5529L-8.52883 -13.2385L280.242 162.419L291.991 143.104L3.22 -32.5529ZM279.411 -14.5908L267.412 -33.9053L-19.6963 144.457L-7.69748 163.771L279.411 -14.5908ZM263.138 150.994L275.137 133.535L-3.42357 -57.9024L-15.4224 -40.4429L263.138 150.994Z" fill="#1B7F9E" style="fill:#1B7F9E;fill:color(display-p3 0.1059 0.4980 0.6196);fill-opacity:1;" mask="url(#path-82-inside-41_0_1)"/>
<mask id="path-84-inside-42_0_1" fill="white">
<path d="M159.492 37.8162L171.241 55.2757L159.492 74.5901L147.493 55.2757L159.492 37.8162Z"/>
</mask>
<path d="M159.492 37.8162L231.671 -10.7548L160.249 -116.892L87.7913 -11.4591L159.492 37.8162ZM171.241 55.2757L245.569 100.489L274.512 52.9091L243.42 6.70474L171.241 55.2757ZM159.492 74.5901L85.5911 120.5L160.272 240.713L233.82 119.804L159.492 74.5901ZM147.493 55.2757L75.7925 6.00042L43.5793 52.8737L73.5923 101.185L147.493 55.2757ZM87.3123 86.3871L99.0611 103.847L243.42 6.70474L231.671 -10.7548L87.3123 86.3871ZM96.912 10.0621L85.1631 29.3766L233.82 119.804L245.569 100.489L96.912 10.0621ZM233.392 28.6804L221.393 9.36595L73.5923 101.185L85.5911 120.5L233.392 28.6804ZM219.193 104.551L231.192 87.0914L87.7913 -11.4591L75.7925 6.00042L219.193 104.551Z" fill="#D6707E" style="fill:#D6707E;fill:color(display-p3 0.8392 0.4392 0.4941);fill-opacity:1;" mask="url(#path-84-inside-42_0_1)"/>
</svg>
